<svg width="55" height="55" viewBox="0 0 55 55" fill="none" xmlns="http://www.w3.org/2000/svg">
<g clip-path="url(#clip0_339_648)">
<path d="M34.9375 40.9167C32.875 43.8958 31.2708 47.1042 31.2708 50.0833C31.2708 51 31.5 51.9167 31.7292 53.0625C31.7292 53.2917 31.7292 53.5208 31.5 53.75C31.2708 53.9792 31.0417 53.75 31.0417 53.5208C28.75 50.5417 27.6042 47.7917 27.6042 44.5833C27.6042 41.8333 28.5208 39.0833 30.3542 36.3333L27.1458 33.125C24.625 36.3333 23.0208 39.7708 23.0208 43.2083C23.0208 44.125 23.25 45.0417 23.4792 46.1875C23.4792 46.4167 23.4792 46.6458 23.25 46.875C23.0208 47.1042 22.7917 46.875 22.7917 46.6458C20.5 43.6667 19.3542 40.9167 19.3542 37.7083C19.3542 34.7292 20.5 31.75 22.7917 28.5417L19.5833 25.5625C17.2917 28.3125 15.6875 31.0625 15.6875 33.8125C15.6875 34.5 15.9167 35.4167 16.1458 35.875C16.1458 36.1042 16.1458 36.1042 15.9167 36.3333C15.6875 36.5625 15.4583 36.3333 15.4583 36.3333C13.625 34.2708 12.9375 31.9792 12.9375 29.9167C12.9375 27.3958 14.0833 24.875 16.1458 22.3542L4 9.97917L6.97917 7L52.125 52.1458L49.1458 55.125L34.9375 40.9167ZM24.8542 19.1458C25.7708 17.5417 26.2292 15.9375 26.2292 14.3333C26.2292 12.2708 25.5417 9.97917 23.7083 7.91667C23.4792 7.6875 23.25 7.6875 23.0208 7.6875C22.7917 7.6875 23.0208 7.91667 23.0208 8.14583C23.25 8.83333 23.4792 9.52083 23.4792 10.2083C23.4792 12.0417 22.7917 13.875 21.6458 15.7083L24.8542 19.1458ZM41.125 18C41.125 21.8958 38.6042 26.0208 35.3958 29.6875L39.9792 34.2708C43.4167 30.8333 45.0208 27.3958 45.0208 23.7292C45.0208 20.75 43.875 17.7708 41.5833 14.7917C41.3542 14.5625 41.3542 14.5625 41.125 14.5625C40.8958 14.7917 40.8958 15.0208 40.8958 15.25C40.8958 16.1667 41.125 17.0833 41.125 18ZM32.4167 26.7083C35.1667 23.2708 36.5417 20.0625 36.5417 16.625C36.5417 13.6458 35.3958 10.6667 33.1042 7.6875H32.6458C32.4167 7.91667 32.4167 8.14583 32.4167 8.375C32.6458 9.29167 32.875 10.2083 32.875 11.3542C32.875 15.0208 30.8125 18.6875 27.8333 22.3542L32.4167 26.7083Z" fill="#FEFEFE"/>
</g>
<defs>
<clipPath id="clip0_339_648">
<rect width="55" height="55" fill="white"/>
</clipPath>
</defs>
</svg>
