<svg width="57" height="57" viewBox="0 0 57 57" fill="none" xmlns="http://www.w3.org/2000/svg">
<path d="M40.375 45.125V52.25H35.625V45.125C35.625 42.5125 33.4875 40.375 30.875 40.375H23.75C17.1 40.375 11.875 35.15 11.875 28.5C11.875 25.65 12.825 23.275 14.4875 21.1375C9.025 20.1875 4.75 15.2 4.75 9.5C4.75 7.8375 5.225 6.175 5.7 4.75H11.4C10.2125 5.9375 9.5 7.6 9.5 9.5C9.5 13.5375 12.5875 16.625 16.625 16.625H23.75V21.375C19.7125 21.375 16.625 24.4625 16.625 28.5C16.625 32.5375 19.7125 35.625 23.75 35.625H30.875C36.1 35.625 40.375 39.9 40.375 45.125ZM42.5125 21.1375C47.975 20.1875 52.25 15.2 52.25 9.5C52.25 7.8375 51.775 6.175 51.3 4.75H45.6C46.7875 5.9375 47.5 7.6 47.5 9.5C47.5 13.5375 44.4125 16.625 40.375 16.625H37.525C37.7625 17.3375 38 18.05 38 19C38 23.0375 34.9125 26.125 30.875 26.125V30.875C37.525 30.875 42.75 36.1 42.75 42.75V52.25H47.5V42.75C47.5 36.3375 43.9375 30.875 38.475 28.025C40.6125 26.3625 42.0375 23.9875 42.5125 21.1375Z" fill="#FEFEFE"/>
</svg>
