<svg width="55" height="55" viewBox="0 0 55 55" fill="none" xmlns="http://www.w3.org/2000/svg">
<path d="M46.408 48.125C46.1411 48.125 45.878 48.0629 45.6393 47.9436C45.4007 47.8242 45.1931 47.651 45.033 47.4375L43.6322 45.5709C42.3052 43.8015 41.3731 41.7681 40.8987 39.6079C40.4243 37.4476 40.4187 35.2107 40.8822 33.0481L43.4139 21.23C43.7743 19.5479 43.7698 17.808 43.4007 16.1278C43.0315 14.4475 42.3064 12.866 41.2741 11.4899L39.875 9.62501C39.7396 9.44444 39.641 9.23897 39.585 9.02032C39.529 8.80167 39.5166 8.57413 39.5485 8.35069C39.5804 8.12725 39.6561 7.91228 39.7711 7.71806C39.8861 7.52385 40.0382 7.35418 40.2188 7.21876C40.3993 7.08333 40.6048 6.9848 40.8234 6.92878C41.0421 6.87276 41.2696 6.86036 41.4931 6.89228C41.7165 6.9242 41.9315 6.99982 42.1257 7.11482C42.3199 7.22981 42.4896 7.38194 42.625 7.56251L44.0258 9.42907C45.3525 11.1983 46.2845 13.2314 46.7589 15.3913C47.2333 17.5513 47.239 19.7878 46.7758 21.9502L44.2423 33.7683C43.8819 35.4504 43.8864 37.1903 44.2556 38.8705C44.6247 40.5508 45.3499 42.1323 46.3822 43.5084L47.7812 45.375C47.9727 45.6302 48.0893 45.9337 48.118 46.2515C48.1467 46.5692 48.0865 46.8887 47.9439 47.1741C47.8014 47.4596 47.5822 47.6997 47.3109 47.8676C47.0397 48.0356 46.727 48.1247 46.408 48.125ZM37.8142 48.125C37.5474 48.125 37.2842 48.0629 37.0456 47.9436C36.8069 47.8242 36.5993 47.651 36.4392 47.4375L35.0384 45.5709C33.7114 43.8015 32.7793 41.7681 32.3049 39.6079C31.8305 37.4476 31.8249 35.2107 32.2884 33.0481L34.8202 21.23C35.1806 19.5479 35.1761 17.808 34.8069 16.1278C34.4378 14.4475 33.7126 12.866 32.6803 11.4899L31.2813 9.62501C31.1458 9.44444 31.0473 9.23897 30.9913 9.02032C30.9353 8.80167 30.9229 8.57413 30.9548 8.35069C30.9867 8.12725 31.0623 7.91228 31.1773 7.71806C31.2923 7.52385 31.4444 7.35418 31.625 7.21876C31.8056 7.08333 32.011 6.9848 32.2297 6.92878C32.4483 6.87276 32.6759 6.86036 32.8993 6.89228C33.1228 6.9242 33.3377 6.99982 33.5319 7.11482C33.7262 7.22981 33.8958 7.38194 34.0312 7.56251L35.432 9.42907C36.7588 11.1983 37.6908 13.2314 38.1652 15.3913C38.6395 17.5513 38.6453 19.7878 38.182 21.9502L35.6486 33.7683C35.2882 35.4504 35.2927 37.1903 35.6618 38.8705C36.031 40.5508 36.7561 42.1323 37.7884 43.5084L39.1875 45.375C39.3789 45.6302 39.4955 45.9337 39.5243 46.2515C39.553 46.5692 39.4927 46.8887 39.3502 47.1741C39.2076 47.4596 38.9885 47.6997 38.7172 47.8676C38.4459 48.0356 38.1333 48.1247 37.8142 48.125ZM29.2205 48.125C28.9536 48.125 28.6905 48.0629 28.4518 47.9436C28.2132 47.8242 28.0056 47.651 27.8455 47.4375L26.4447 45.5709C25.1177 43.8015 24.1856 41.7681 23.7112 39.6079C23.2368 37.4476 23.2312 35.2107 23.6947 33.0481L26.2264 21.23C26.5868 19.5479 26.5823 17.808 26.2132 16.1278C25.844 14.4475 25.1189 12.866 24.0866 11.4899L22.6875 9.62501C22.5521 9.44444 22.4535 9.23897 22.3975 9.02032C22.3415 8.80167 22.3291 8.57413 22.361 8.35069C22.3929 8.12725 22.4686 7.91228 22.5836 7.71807C22.6986 7.52385 22.8507 7.35418 23.0312 7.21876C23.2118 7.08333 23.4173 6.9848 23.6359 6.92878C23.8546 6.87276 24.0821 6.86036 24.3056 6.89228C24.529 6.9242 24.744 6.99982 24.9382 7.11482C25.1324 7.22981 25.3021 7.38194 25.4375 7.56251L26.8366 9.42907C28.1636 11.1981 29.0959 13.2312 29.5706 15.3911C30.0453 17.5511 30.0513 19.7877 29.5883 21.9502L27.0548 33.7683C26.6944 35.4504 26.6989 37.1903 27.0681 38.8705C27.4372 40.5508 28.1624 42.1323 29.1947 43.5084L30.5937 45.375C30.7852 45.6302 30.9018 45.9337 30.9305 46.2515C30.9592 46.5692 30.899 46.8887 30.7564 47.1741C30.6139 47.4596 30.3947 47.6997 30.1234 47.8676C29.8522 48.0356 29.5395 48.1247 29.2205 48.125ZM20.6267 48.125C20.3599 48.125 20.0967 48.0629 19.8581 47.9436C19.6194 47.8242 19.4118 47.651 19.2517 47.4375L17.8509 45.5709C16.5239 43.8015 15.5918 41.7681 15.1174 39.6079C14.643 37.4476 14.6374 35.2107 15.1009 33.0481L17.6327 21.23C17.9928 19.5481 17.9882 17.8086 17.619 16.1287C17.2499 14.4488 16.5249 12.8675 15.4928 11.4916L14.0938 9.62501C13.9583 9.44444 13.8598 9.23897 13.8038 9.02032C13.7478 8.80167 13.7354 8.57413 13.7673 8.35069C13.7992 8.12725 13.8748 7.91228 13.9898 7.71807C14.1048 7.52385 14.2569 7.35418 14.4375 7.21876C14.6181 7.08333 14.8235 6.9848 15.0422 6.92878C15.2608 6.87276 15.4884 6.86036 15.7118 6.89228C15.9353 6.9242 16.1502 6.99982 16.3444 7.11482C16.5387 7.22981 16.7083 7.38194 16.8438 7.56251L18.2445 9.42907C19.5713 11.1983 20.5033 13.2314 20.9777 15.3913C21.452 17.5513 21.4578 19.7878 20.9945 21.9502L18.4611 33.7683C18.1007 35.4504 18.1052 37.1903 18.4743 38.8705C18.8435 40.5508 19.5686 42.1323 20.6009 43.5084L22 45.375C22.1914 45.6302 22.308 45.9337 22.3368 46.2515C22.3655 46.5692 22.3052 46.8887 22.1627 47.1741C22.0201 47.4596 21.801 47.6997 21.5297 47.8676C21.2584 48.0356 20.9458 48.1247 20.6267 48.125ZM12.033 48.125C11.7659 48.1253 11.5023 48.0633 11.2634 47.9439C11.0244 47.8246 10.8165 47.6512 10.6562 47.4375L9.25719 45.5709C7.93019 43.8015 6.99807 41.7681 6.52368 39.6079C6.04929 37.4476 6.04366 35.2107 6.50719 33.0481L9.03891 21.23C9.39906 19.5481 9.39442 17.8086 9.02529 16.1287C8.65616 14.4488 7.93112 12.8675 6.89906 11.4916L5.5 9.62501C5.36457 9.44444 5.26604 9.23897 5.21002 9.02032C5.15401 8.80167 5.1416 8.57413 5.17352 8.35069C5.23799 7.89943 5.47908 7.49226 5.84375 7.21876C6.20842 6.94525 6.66681 6.82782 7.11807 6.89228C7.56933 6.95675 7.9765 7.19783 8.25 7.56251L9.65078 9.42907C10.9775 11.1983 11.9095 13.2314 12.3839 15.3913C12.8583 17.5513 12.864 19.7878 12.4008 21.9502L9.86734 33.7683C9.50693 35.4504 9.51144 37.1903 9.88058 38.8705C10.2497 40.5508 10.9749 42.1323 12.0072 43.5084L13.4062 45.375C13.5977 45.6302 13.7143 45.9337 13.743 46.2515C13.7717 46.5692 13.7115 46.8887 13.5689 47.1741C13.4264 47.4596 13.2072 47.6997 12.9359 47.8676C12.6647 48.0356 12.352 48.1247 12.033 48.125Z" fill="#FEFEFE"/>
</svg>
