<svg width="68" height="68" viewBox="0 0 68 68" fill="none" xmlns="http://www.w3.org/2000/svg">
<path d="M33.9543 3.02148C16.5329 3.02148 2.38208 7.44759 2.38208 12.8953C2.38235 15.869 6.68653 18.5518 13.3476 20.362C11.0357 19.1787 9.69128 17.8099 9.69128 16.3152C9.69128 12.0482 20.5487 8.5417 33.9543 8.5417C47.3598 8.5417 58.2922 12.048 58.2922 16.3152C58.2922 17.8019 56.9242 19.1826 54.6358 20.362C61.2556 18.5522 65.5222 15.8583 65.5222 12.8953C65.5222 7.44759 51.3758 3.02148 33.9543 3.02148ZM19.5858 13.6922V17.689H48.3105V13.6922H19.5858ZM20.1667 20.1708V48.0702H22.6486V20.1709H20.1669L20.1667 20.1708ZM25.363 20.1708C25.4557 28.3802 28.7265 32.9785 32.3769 33.9586C28.6784 34.9513 25.3675 39.6562 25.3586 48.0699H42.3836C42.3748 39.6558 39.0697 34.9525 35.3738 33.9586C39.0219 32.9776 42.2867 28.3807 42.3796 20.1709H25.3629L25.363 20.1708ZM45.0108 20.1708V48.0702H47.4928V20.1709H45.0108V20.1708ZM13.3476 47.9081C6.68667 49.7178 2.38221 52.4008 2.38221 55.3744C2.38221 60.8222 16.5329 65.2483 33.9544 65.2483C51.3759 65.2483 65.5222 60.8223 65.5222 55.3747C65.5222 52.4117 61.2556 49.7178 54.6356 47.908C56.9242 49.0874 58.2922 50.4638 58.2922 51.9505C58.2922 56.2178 47.36 59.7284 33.9543 59.7284C20.5486 59.7284 9.69128 56.2173 9.69128 51.9503C9.69128 50.4556 11.0357 49.0911 13.3476 47.9079V47.9081ZM19.5858 50.5518V54.5445H48.3105V50.5518H19.5858Z" fill="white"/>
</svg>
